<?xml version="1.0" encoding="UTF-8" standalone="no"?>
<svg
   xmlns:dc="http://purl.org/dc/elements/1.1/"
   xmlns:cc="http://creativecommons.org/ns#"
   xmlns:rdf="http://www.w3.org/1999/02/22-rdf-syntax-ns#"
   xmlns:svg="http://www.w3.org/2000/svg"
   xmlns="http://www.w3.org/2000/svg"
   xmlns:sodipodi="http://sodipodi.sourceforge.net/DTD/sodipodi-0.dtd"
   xmlns:inkscape="http://www.inkscape.org/namespaces/inkscape"
   version="1.1"
   x="0px"
   y="0px"
   viewBox="0 0 61.948002 61.314999"
   xml:space="preserve"
   id="svg22"
   sodipodi:docname="noun_Petri Dish_897935_grey5.svg"
   width="61.948002"
   height="61.314999"
   inkscape:version="1.0.2-2 (e86c870879, 2021-01-15)"><metadata
     id="metadata28"><rdf:RDF><cc:Work
         rdf:about=""><dc:format>image/svg+xml</dc:format><dc:type
           rdf:resource="http://purl.org/dc/dcmitype/StillImage" /><dc:title></dc:title></cc:Work></rdf:RDF></metadata><defs
     id="defs26" /><sodipodi:namedview
     pagecolor="#ffffff"
     bordercolor="#666666"
     borderopacity="1"
     objecttolerance="10"
     gridtolerance="10"
     guidetolerance="10"
     inkscape:pageopacity="0"
     inkscape:pageshadow="2"
     inkscape:window-width="1366"
     inkscape:window-height="705"
     id="namedview24"
     showgrid="false"
     fit-margin-top="0"
     fit-margin-left="0"
     fit-margin-right="0"
     fit-margin-bottom="0"
     inkscape:zoom="6.725"
     inkscape:cx="31"
     inkscape:cy="26.509294"
     inkscape:window-x="-8"
     inkscape:window-y="-8"
     inkscape:window-maximized="1"
     inkscape:current-layer="g16" /><g
     id="g16"
     transform="translate(-1,-1)"><path
       d="M 61.656,53.806 58.953,54.482 54.98,45.74 54.082,35.861 54.66,35.957 C 54.831,35.985 55.004,36 55.179,36 h 0.666 C 57.585,36 59,34.585 59,32.845 59,31.28 57.878,29.969 56.332,29.728 L 53.783,29.33 52.761,27.287 48.998,25.092 C 48.998,25.062 49,25.032 49,25.001 49,11.767 38.233,1 25,1 11.767,1 1,11.767 1,25 c 0,13.233 10.767,24 24,24 4.339,0 8.533,-1.162 12.231,-3.36 l 0.118,0.118 6.789,5.82 2.033,6.098 -2.461,0.615 1.342,4.024 1.896,-0.633 -0.658,-1.976 0.516,-0.129 v 0 L 59.795,56.33 v 0 l 0.549,-0.137 0.708,2.122 1.896,-0.633 z M 57,32.845 C 57,33.481 56.481,34 55.845,34 h -0.666 c -0.063,0 -0.127,-0.005 -0.19,-0.016 L 34.395,30.552 33.527,28.815 c -0.13,-0.258 -0.292,-0.491 -0.477,-0.701 l 22.974,3.59 C 56.59,31.792 57,32.271 57,32.845 Z M 40.919,33.667 38.906,35.68 35.789,33.342 35.5,32.764 Z M 28.125,28.111 c -0.329,0.373 -0.558,0.813 -0.69,1.281 l -1.843,-0.307 -1.033,-1.55 1.527,-0.509 2.845,0.445 c -0.296,0.173 -0.574,0.378 -0.806,0.64 z m 23.232,0.839 -19.68,-3.075 c -0.006,-0.105 -0.002,-0.211 0.025,-0.318 0.083,-0.333 0.317,-0.591 0.643,-0.709 L 39.902,22.1 51.24,28.714 Z M 25,47 C 12.869,47 3,37.131 3,25 3,12.869 12.869,3 25,3 36.765,3 46.402,12.283 46.972,23.91 L 40.098,19.9 31.66,22.968 c -0.944,0.344 -1.655,1.13 -1.899,2.103 -0.041,0.164 -0.048,0.33 -0.061,0.495 l -3.786,-0.592 -4.473,1.491 2.967,4.45 3.011,0.502 0.63,5.048 7.718,7.713 C 32.489,46.024 28.805,47 25,47 Z m 20.861,3.421 -7.154,-6.128 -8.757,-8.758 -0.637,-5.092 c -0.047,-0.37 0.064,-0.729 0.312,-1.009 0.57,-0.647 1.727,-0.496 2.112,0.275 l 2.474,4.948 4.883,3.662 L 43,34.414 v -0.4 l 9.043,1.507 0.977,10.739 3.961,8.715 -8.862,2.216 z"
       id="path2"
       style="fill:#f2f2f2" /><path
       d="m 9,21 c -2.757,0 -5,2.243 -5,5 0,2.757 2.243,5 5,5 2.757,0 5,-2.243 5,-5 0,-2.757 -2.243,-5 -5,-5 z m 0,8 c -1.654,0 -3,-1.346 -3,-3 0,-1.654 1.346,-3 3,-3 1.654,0 3,1.346 3,3 0,1.654 -1.346,3 -3,3 z"
       id="path4"
       style="fill:#ff00ff" /><path
       d="m 22,18 c 1.654,0 3,-1.346 3,-3 0,-1.654 -1.346,-3 -3,-3 -1.654,0 -3,1.346 -3,3 0,1.654 1.346,3 3,3 z m 0,-4 c 0.552,0 1,0.449 1,1 0,0.551 -0.448,1 -1,1 -0.552,0 -1,-0.449 -1,-1 0,-0.551 0.448,-1 1,-1 z"
       id="path6"
       style="fill:#ff00ff" /><path
       d="m 32,13 v 1 c 0,1.654 1.346,3 3,3 1.654,0 3,-1.346 3,-3 V 12 C 38,9.243 35.757,7 33,7 h -1 c -1.654,0 -3,1.346 -3,3 0,1.654 1.346,3 3,3 z m 0,-4 h 1 c 1.654,0 3,1.346 3,3 v 2 c 0,0.551 -0.448,1 -1,1 -0.552,0 -1,-0.449 -1,-1 v -1 c 0,-1.103 -0.897,-2 -2,-2 -0.552,0 -1,-0.449 -1,-1 0,-0.551 0.448,-1 1,-1 z"
       id="path8"
       style="fill:#ff00ff" /><circle
       cx="22"
       cy="40"
       r="1"
       id="circle10"
       style="fill:#ff00ff" /><circle
       cx="19"
       cy="22"
       r="1"
       id="circle12"
       style="fill:#ff00ff" /><path
       d="m 22,34 c -2.757,0 -5,2.243 -5,5 0,2.757 2.243,5 5,5 2.757,0 5,-2.243 5,-5 0,-2.757 -2.243,-5 -5,-5 z m 0,8 c -1.654,0 -3,-1.346 -3,-3 0,-1.654 1.346,-3 3,-3 1.654,0 3,1.346 3,3 0,1.654 -1.346,3 -3,3 z"
       id="path14"
       style="fill:#ff00ff" /></g></svg>
